HIERARCHY
ROOT hip
{
  OFFSET 0 0 0
  CHANNELS 6 Xposition Yposition Zposition Zrotation Yrotation Xrotation
  JOINT abdomen
  {
    OFFSET 0 20.6881 -0.73152
    CHANNELS 3 Zrotation Xrotation Yrotation
    JOINT chest
    {
      OFFSET 0 11.7043 -0.48768
      CHANNELS 3 Zrotation Xrotation Yrotation
      JOINT neck
      {
        OFFSET 0 22.1894 -2.19456
        CHANNELS 3 Zrotation Xrotation Yrotation
        JOINT head
        {
          OFFSET -0.24384 7.07133 1.2192
          CHANNELS 3 Zrotation Xrotation Yrotation
          JOINT leftEye
          {
            OFFSET 4.14528 8.04674 8.04672
            CHANNELS 3 Zrotation Xrotation Yrotation
            End Site
            {
              OFFSET 1 0 0
            }
          }
          JOINT rightEye
          {
            OFFSET -3.6576 8.04674 8.04672
            CHANNELS 3 Zrotation Xrotation Yrotation
            End Site
            {
              OFFSET 1 0 0
            }
          }
        }
      }
      JOINT rCollar
      {
        OFFSET -2.68224 19.2634 -4.8768
        CHANNELS 3 Zrotation Xrotation Yrotation
        JOINT rShldr
        {
          OFFSET -8.77824 -1.95073 1.46304
          CHANNELS 3 Zrotation Xrotation Yrotation
          JOINT rForeArm
          {
            OFFSET -28.1742 -1.7115 0.48768
            CHANNELS 3 Zrotation Xrotation Yrotation
            JOINT rHand
            {
              OFFSET -22.5879 0.773209 7.07136
              CHANNELS 3 Zrotation Xrotation Yrotation
              JOINT rThumb1
              {
                OFFSET -1.2192 -0.487915 3.41376
                CHANNELS 3 Zrotation Xrotation Yrotation
                JOINT rThumb2
                {
                  OFFSET -3.37035 -0.52449 3.41376
                  CHANNELS 3 Zrotation Xrotation Yrotation
                  End Site
                  {
                    OFFSET -1.78271 -1.18214 1.43049
                  }
                }
              }
              JOINT rIndex1
              {
                OFFSET -7.75947 0.938293 5.60832
                CHANNELS 3 Zrotation Xrotation Yrotation
                JOINT rIndex2
                {
                  OFFSET -2.54057 -0.884171 1.56538
                  CHANNELS 3 Zrotation Xrotation Yrotation
                  End Site
                  {
                    OFFSET -1.62519 -0.234802 1.16502
                  }
                }
              }
              JOINT rMid1
              {
                OFFSET -8.24714 1.18213 3.41376
                CHANNELS 3 Zrotation Xrotation Yrotation
                JOINT rMid2
                {
                  OFFSET -3.10165 -0.590103 1.0647
                  CHANNELS 3 Zrotation Xrotation Yrotation
                  End Site
                  {
                    OFFSET -2.48547 -0.328903 0.83742
                  }
                }
              }
              JOINT rRing1
              {
                OFFSET -8.82822 0.546677 1.51678
                CHANNELS 3 Zrotation Xrotation Yrotation
                JOINT rRing2
                {
                  OFFSET -2.60934 -0.819778 -0.0198488
                  CHANNELS 3 Zrotation Xrotation Yrotation
                  End Site
                  {
                    OFFSET -2.33842 -0.294052 0.168128
                  }
                }
              }
              JOINT rPinky1
              {
                OFFSET -8.27202 -0.0477905 -0.4584
                CHANNELS 3 Zrotation Xrotation Yrotation
                JOINT rPinky2
                {
                  OFFSET -1.82734 -0.647385 -0.700984
                  CHANNELS 3 Zrotation Xrotation Yrotation
                  End Site
                  {
                    OFFSET -1.69225 -0.51767 -0.607171
                  }
                }
              }
            }
          }
        }
      }
      JOINT lCollar
      {
        OFFSET 2.68224 19.2634 -4.8768
        CHANNELS 3 Zrotation Xrotation Yrotation
        JOINT lShldr
        {
          OFFSET 8.77824 -1.95073 1.46304
          CHANNELS 3 Zrotation Xrotation Yrotation
          JOINT lForeArm
          {
            OFFSET 28.1742 -1.7115 0.48768
            CHANNELS 3 Zrotation Xrotation Yrotation
            JOINT lHand
            {
              OFFSET 22.5879 0.773209 7.07136
              CHANNELS 3 Zrotation Xrotation Yrotation
              JOINT lThumb1
              {
                OFFSET 1.2192 -0.487915 3.41376
                CHANNELS 3 Zrotation Xrotation Yrotation
                JOINT lThumb2
                {
                  OFFSET 3.37035 -0.52449 3.41376
                  CHANNELS 3 Zrotation Xrotation Yrotation
                  End Site
                  {
                    OFFSET 1.78271 -1.18214 1.43049
                  }
                }
              }
              JOINT lIndex1
              {
                OFFSET 7.75947 0.938293 5.60832
                CHANNELS 3 Zrotation Xrotation Yrotation
                JOINT lIndex2
                {
                  OFFSET 2.54057 -0.884171 1.56538
                  CHANNELS 3 Zrotation Xrotation Yrotation
                  End Site
                  {
                    OFFSET 1.62519 -0.234802 1.16502
                  }
                }
              }
              JOINT lMid1
              {
                OFFSET 8.24714 1.18213 3.41376
                CHANNELS 3 Zrotation Xrotation Yrotation
                JOINT lMid2
                {
                  OFFSET 3.10165 -0.590103 1.0647
                  CHANNELS 3 Zrotation Xrotation Yrotation
                  End Site
                  {
                    OFFSET 2.48547 -0.328903 0.83742
                  }
                }
              }
              JOINT lRing1
              {
                OFFSET 8.82822 0.546677 1.51678
                CHANNELS 3 Zrotation Xrotation Yrotation
                JOINT lRing2
                {
                  OFFSET 2.60934 -0.819778 -0.0198488
                  CHANNELS 3 Zrotation Xrotation Yrotation
                  End Site
                  {
                    OFFSET 2.33842 -0.294052 0.168128
                  }
                }
              }
              JOINT lPinky1
              {
                OFFSET 8.27202 -0.0477905 -0.4584
                CHANNELS 3 Zrotation Xrotation Yrotation
                JOINT lPinky2
                {
                  OFFSET 1.82734 -0.647385 -0.700984
                  CHANNELS 3 Zrotation Xrotation Yrotation
                  End Site
                  {
                    OFFSET 1.69225 -0.51767 -0.607171
                  }
                }
              }
            }
          }
        }
      }
    }
  }
  JOINT rButtock
  {
    OFFSET -8.77824 4.35084 1.2192
    CHANNELS 3 Zrotation Xrotation Yrotation
    JOINT rThigh
    {
      OFFSET 0 -1.70687 -2.19456
      CHANNELS 3 Zrotation Xrotation Yrotation
      JOINT rShin
      {
        OFFSET 0 -36.8199 0.73152
        CHANNELS 3 Zrotation Xrotation Yrotation
        JOINT rFoot
        {
          OFFSET 0.73152 -45.1104 -5.12064
          CHANNELS 3 Zrotation Xrotation Yrotation
          End Site
          {
            OFFSET -1.1221 -3.69964 12.103
          }
        }
      }
    }
  }
  JOINT lButtock
  {
    OFFSET 8.77824 4.35084 1.2192
    CHANNELS 3 Zrotation Xrotation Yrotation
    JOINT lThigh
    {
      OFFSET 0 -1.70687 -2.19456
      CHANNELS 3 Zrotation Xrotation Yrotation
      JOINT lShin
      {
        OFFSET 0 -36.8199 0.73152
        CHANNELS 3 Zrotation Xrotation Yrotation
        JOINT lFoot
        {
          OFFSET -0.73152 -45.1104 -5.12064
          CHANNELS 3 Zrotation Xrotation Yrotation
          End Site
          {
            OFFSET 1.1221 -3.69964 12.103
          }
        }
      }
    }
  }
}
MOTION
Frames:	4
Frame Time:	0.00833333
1.08286 83.1983 56.6733 -3.8108 -1.87 -3.1938 5.81294 10.2076 -1.40876 1.7886 -5.27644 -0.0944044 -1.8042 -0.914394 -2.30134 -0.757478 0.436269 -4.03708 -0.0 0.0 0.0 -0.0 0.0 0.0 -8.94385e-14 1.5072e-14 3.4262e-14 81.8403 -6.86583 -2.30993 -8.7468 -3.4138 15.4715 -0.237823 13.7495 1.97077 9.30408e-10 5.35119e-10 3.38462e-10 1.61068e-09 9.24833e-10 5.74823e-10 9.30422e-10 5.35116e-10 3.38443e-10 7.73091 5.47488 0.417314 9.30407e-10 5.35119e-10 3.38454e-10 2.90554 0.965183 0.102902 9.30418e-10 5.35119e-10 3.38455e-10 10.2786 0.731801 0.0259123 9.30405e-10 5.35119e-10 3.38461e-10 2.22167 -0.733487 -0.20892 -8.95182e-14 1.50681e-14 3.39533e-14 -73.2479 19.5043 -5.66381 13.4327 -6.506 -24.4188 0.0863604 -8.35855 1.18319 1.44334e-09 9.98427e-10 5.46157e-10 2.49211e-09 1.71821e-09 9.53012e-10 1.44333e-09 9.98426e-10 5.46159e-10 -7.73091 5.47488 -0.417314 1.44334e-09 9.98427e-10 5.46163e-10 -2.90554 0.965183 -0.102902 1.44333e-09 9.98427e-10 5.46157e-10 -10.2786 0.731801 -0.0259123 1.44334e-09 9.98429e-10 5.4615e-10 -2.22167 -0.733487 0.20892 -2.03217e-16 0.0 -3.88251e-19 9.81807 -20.7708 1.27633 -0.175041 27.5163 0.150655 -0.997992 -2.80121 -4.15816 2.03217e-16 0.0 3.88251e-19 3.67306 -8.39805 1.63428 0.899911 57.832 -1.52146 4.2543 19.8137 -15.2881
0.925276 83.2309 57.6099 -4.1096 -1.9969 -3.3051 5.98791 10.2383 -1.29504 1.68587 -5.30762 -0.058609 -1.84583 -0.662787 -2.34769 -0.572077 0.346378 -4.12387 -0.0 0.0 0.0 -0.0 0.0 0.0 -5.58656e-14 1.12327e-14 2.87586e-14 81.8108 -6.54073 -1.92999 -8.80233 -3.44444 15.5743 -0.236793 13.7143 1.96558 5.19143e-10 2.69306e-10 -1.55231e-10 8.94736e-10 4.6684e-10 -2.74318e-10 5.19161e-10 2.69303e-10 -1.55247e-10 7.73091 5.47488 0.417314 5.19142e-10 2.69305e-10 -1.55241e-10 2.90554 0.965183 0.102902 5.19153e-10 2.69305e-10 -1.55237e-10 10.2786 0.731801 0.0259123 5.19141e-10 2.69306e-10 -1.55233e-10 2.22167 -0.733487 -0.20892 -5.597e-14 1.12291e-14 2.84448e-14 -73.4962 19.5714 -5.3443 13.3373 -6.43244 -24.229 0.0814511 -8.1225 1.14931 6.87586e-10 6.506e-10 4.57096e-10 1.1863e-09 1.11999e-09 7.9491e-10 6.87582e-10 6.50599e-10 4.57102e-10 -7.73091 5.47488 -0.417314 6.87586e-10 6.50598e-10 4.57099e-10 -2.90554 0.965183 -0.102902 6.8758e-10 6.50598e-10 4.57096e-10 -10.2786 0.731801 -0.0259123 6.87594e-10 6.50601e-10 4.57088e-10 -2.22167 -0.733487 0.20892 -2.03217e-16 0.0 -3.88251e-19 10.0268 -20.1188 1.19536 -0.173186 27.5497 0.153901 -1.0455 -3.68205 -4.05327 2.03217e-16 0.0 3.88251e-19 4.07831 -9.71165 1.98569 0.996115 59.3954 -1.59188 3.576 18.0193 -14.5304
0.901685 83.2837 58.5154 -4.0766 -1.8856 -3.3345 6.13587 10.2717 -1.18148 1.5903 -5.34004 -0.0239585 -1.89162 -0.424364 -2.39175 -0.380189 0.28217 -4.20425 -0.0 0.0 0.0 -0.0 0.0 0.0 -1.36746e-14 7.14482e-15 2.4555e-14 81.7761 -6.18193 -1.53358 -8.87616 -3.48558 15.7107 -0.234287 13.6435 1.95502 3.0768e-11 1.31319e-11 -6.3676e-10 4.58036e-11 2.53876e-11 -1.10159e-09 3.07903e-11 1.31286e-11 -6.36773e-10 7.73091 5.47488 0.417314 3.0769e-11 1.31308e-11 -6.36771e-10 2.90554 0.965183 0.102902 3.07785e-11 1.31305e-11 -6.36764e-10 10.2786 0.731801 0.0259123 3.07671e-11 1.3132e-11 -6.36761e-10 2.22167 -0.733487 -0.20892 -1.37993e-14 7.14174e-15 2.4244e-14 -73.7495 19.6432 -5.0191 13.2412 -6.35855 -24.0389 0.0772403 -7.90888 1.11869 -1.54228e-10 2.17572e-10 3.17468e-10 -2.6792e-10 3.75011e-10 5.48827e-10 -1.54233e-10 2.17571e-10 3.17479e-10 -7.73091 5.47488 -0.417314 -1.54229e-10 2.17569e-10 3.17469e-10 -2.90554 0.965183 -0.102902 -1.54235e-10 2.17569e-10 3.17468e-10 -10.2786 0.731801 -0.0259123 -1.54219e-10 2.17573e-10 3.17459e-10 -2.22167 -0.733487 0.20892 -2.03217e-16 0.0 -3.88251e-19 10.2298 -19.4604 1.15017 -0.170889 27.574 0.160848 -1.09541 -4.55508 -3.98481 2.03217e-16 0.0 3.88251e-19 4.47127 -10.9821 2.33133 1.09292 60.8142 -1.66413 2.91588 16.0736 -13.7748
0.845012 83.3305 59.3765 -4.1233 -1.808 -3.2693 6.30754 10.3287 -1.04425 1.50975 -5.34872 0.0181461 -1.91445 -0.303529 -2.42413 -0.24236 0.289378 -4.2646 -0.0 0.0 0.0 -0.0 0.0 0.0 2.64065e-14 3.18133e-15 2.59911e-14 81.7223 -5.70064 -1.07252 -8.97083 -3.53906 15.8852 -0.226879 13.4424 1.92501 -4.34148e-10 -7.84353e-11 -8.90959e-10 -7.5996e-10 -1.32206e-10 -1.5361e-09 -4.34125e-10 -7.84384e-11 -8.90969e-10 7.73091 5.47488 0.417314 -4.34146e-10 -7.84367e-11 -8.90969e-10 2.90554 0.965183 0.102902 -4.34138e-10 -7.84372e-11 -8.90962e-10 10.2786 0.731801 0.0259123 -4.34149e-10 -7.84353e-11 -8.90959e-10 2.22167 -0.733487 -0.20892 2.62732e-14 3.17861e-15 2.56929e-14 -73.9984 19.7185 -4.73761 13.1664 -6.3011 -23.8914 0.074979 -7.78838 1.10144 -8.71584e-10 -2.83439e-10 1.65475e-10 -1.5071e-09 -4.88521e-10 2.8209e-10 -8.71589e-10 -2.83441e-10 1.65487e-10 -7.73091 5.47488 -0.417314 -8.71585e-10 -2.83443e-10 1.65475e-10 -2.90554 0.965183 -0.102902 -8.7159e-10 -2.83443e-10 1.65475e-10 -10.2786 0.731801 -0.0259123 -8.71575e-10 -2.83439e-10 1.65465e-10 -2.22167 -0.733487 0.20892 -2.03217e-16 0.0 -3.88251e-19 10.5091 -18.7858 1.21559 -0.168089 27.5641 0.168483 -1.14671 -5.22677 -4.01542 2.03217e-16 0.0 3.88251e-19 4.89231 -12.2644 2.65576 1.18472 62.048 -1.73294 2.354 14.3536 -12.9636
